<?xml version="1.0" standalone="no"?><!DOCTYPE svg PUBLIC "-//W3C//DTD SVG 1.1//EN" "http://www.w3.org/Graphics/SVG/1.1/DTD/svg11.dtd"><svg t="1642088836769" class="icon" viewBox="0 0 1024 1024" version="1.1" xmlns="http://www.w3.org/2000/svg" p-id="6813" xmlns:xlink="http://www.w3.org/1999/xlink" width="200" height="200"><defs><style type="text/css"></style></defs><path d="M426.666667 170.666667a64 64 0 0 1 64 64v554.666666a64 64 0 0 1-64 64h-192a64 64 0 0 1-64-64V234.666667a64 64 0 0 1 64-64h192z m362.666666 362.666666a64 64 0 0 1 64 64v192a64 64 0 0 1-64 64h-192a64 64 0 0 1-64-64v-192a64 64 0 0 1 64-64h192zM426.666667 234.666667h-192v554.666666h192V234.666667z m362.666666 362.666666h-192v192h192v-192z m0-426.666666a64 64 0 0 1 64 64v192a64 64 0 0 1-64 64h-192a64 64 0 0 1-64-64v-192a64 64 0 0 1 64-64h192z m0 64h-192v192h192v-192z" p-id="6814"></path></svg>